<svg width="101" height="35" viewBox="0 0 101 35" fill="none" xmlns="http://www.w3.org/2000/svg">
    <path d="M93.3536 1.38733H7.64641C4.21213 1.38733 1.4281 4.17136 1.4281 7.60563V26.9102C1.4281 30.3445 4.21213 33.1285 7.64641 33.1285H93.3536C96.7879 33.1285 99.5719 30.3445 99.5719 26.9102V7.60563C99.5719 4.17136 96.7879 1.38733 93.3536 1.38733Z" fill="white"/>
    <path fill-rule="evenodd" clip-rule="evenodd" d="M7.64641 0.459229H93.3536C97.3004 0.459229 100.5 3.65879 100.5 7.60564V26.9102C100.5 30.8571 97.3004 34.0566 93.3536 34.0566H7.64641C3.69956 34.0566 0.5 30.8571 0.5 26.9102V7.60564C0.5 3.65879 3.69956 0.459229 7.64641 0.459229ZM7.64641 1.38733H93.3536C96.7879 1.38733 99.5719 4.17136 99.5719 7.60564V26.9102C99.5719 30.3445 96.7879 33.1285 93.3536 33.1285H7.64641C4.21214 33.1285 1.42811 30.3445 1.42811 26.9102V7.60564C1.42811 4.17136 4.21214 1.38733 7.64641 1.38733Z" fill="white"/>
    <path d="M27.2723 17.1911C27.3154 22.6194 22.9026 27.0496 17.4918 27.0626C12.0503 27.0752 7.69051 22.6866 7.64678 17.3446C7.59993 11.8908 12.0315 7.4195 17.5246 7.45332C22.8891 7.48662 27.24 11.8466 27.2723 17.1911ZM17.46 26.2774C22.4773 26.2774 26.5643 22.1693 26.4873 17.1183C26.4487 14.7259 25.4616 12.4467 23.7427 10.7816C22.0241 9.11657 19.7142 8.20187 17.321 8.2386C12.411 8.30678 8.33237 12.3498 8.43179 17.4451C8.52863 22.3666 12.5672 26.2806 17.46 26.2774Z" fill="#733236"/>
    <path d="M14.2169 10.9072C14.8536 10.9072 15.4907 10.9041 16.1274 10.9072C16.2804 10.9072 16.3658 10.864 16.434 10.7157C16.5902 10.3712 16.9056 10.2291 17.2576 10.1802C17.6464 10.1282 18.0103 10.2052 18.3039 10.4872C18.3774 10.5602 18.4369 10.6461 18.4793 10.7407C18.5361 10.8651 18.6167 10.9077 18.7521 10.9072C20.0348 10.903 21.317 10.9072 22.5997 10.9072C23.1331 10.9072 23.4871 11.2606 23.4882 11.7919C23.4882 12.5933 23.4882 13.3942 23.4914 14.1956C23.4914 14.3429 23.434 14.4392 23.3039 14.4886C23.1471 14.5525 22.9787 14.5839 22.8092 14.5809C22.6398 14.578 22.4727 14.5408 22.3181 14.4715C22.2656 14.4505 22.2212 14.413 22.1919 14.3646C22.1625 14.3163 22.1499 14.2597 22.1557 14.2034C22.1612 13.6711 22.1557 13.1382 22.1557 12.6058C22.1557 12.3487 22.04 12.2285 21.7855 12.2264C21.4475 12.2233 21.1095 12.2233 20.7713 12.2264C20.5293 12.2264 20.4325 12.3269 20.432 12.5657C20.432 13.1153 20.4279 13.6653 20.432 14.2154C20.432 14.3382 20.3852 14.4189 20.28 14.46C20.0778 14.5448 19.8601 14.5868 19.6409 14.5833C19.4217 14.5798 19.2055 14.5309 19.0061 14.4397C18.9114 14.3976 18.8864 14.3179 18.8869 14.2159C18.8911 13.6837 18.8911 13.151 18.8869 12.6178C18.8869 12.3284 18.7797 12.2249 18.4944 12.2249H16.4121C16.1222 12.2249 16.016 12.3352 16.0165 12.6303C16.0165 13.1543 16.0165 13.6784 16.0207 14.2024C16.0207 14.3356 15.9686 14.4179 15.8536 14.4626C15.4679 14.6184 15.0372 14.6206 14.65 14.4689C14.5272 14.4226 14.4746 14.3388 14.4762 14.1993C14.4834 13.6669 14.4798 13.134 14.4798 12.6011C14.4798 12.3201 14.3866 12.2254 14.1081 12.2249C13.7833 12.2249 13.4584 12.2249 13.1336 12.2249C12.8733 12.2249 12.7583 12.3378 12.7572 12.5959C12.7541 13.1028 12.7572 13.6091 12.7572 14.116C12.7572 14.3861 12.7125 14.4621 12.4485 14.5323C12.1754 14.6116 11.8838 14.5988 11.6187 14.4959C11.4683 14.435 11.424 14.359 11.424 14.1962C11.424 13.3906 11.424 12.585 11.424 11.7794C11.424 11.425 11.5771 11.1581 11.89 10.9988C12.0147 10.94 12.1508 10.9096 12.2887 10.9098C12.9342 10.9025 13.5756 10.9072 14.2169 10.9072Z" fill="#733236"/>
    <path d="M17.4528 21.1472H19.8178C20.0296 21.1472 20.1432 21.2222 20.2081 21.4188C20.3104 21.7304 20.3069 22.067 20.1983 22.3764C20.1389 22.5533 20.042 22.611 19.8547 22.611H18.282C18.252 22.6077 18.2216 22.6092 18.192 22.6153C18.167 22.6236 18.1279 22.6537 18.1305 22.6673C18.1345 22.6829 18.1414 22.6973 18.1509 22.7101C18.1605 22.723 18.1725 22.7335 18.1862 22.7417C18.219 22.7525 18.2536 22.756 18.2878 22.7521C18.8941 22.7521 19.5014 22.7521 20.1097 22.7521C20.3544 22.7521 20.4741 22.6324 20.4814 22.3879C20.4851 22.1975 20.4903 22.0065 20.4814 21.8155C20.4752 21.6738 20.5335 21.578 20.6564 21.5276C20.8019 21.4646 20.9586 21.4314 21.1173 21.4295C21.2758 21.4275 21.4332 21.4572 21.5804 21.5168C21.6383 21.5363 21.6879 21.5749 21.7211 21.6261C21.7545 21.6773 21.7694 21.7384 21.7636 21.7993C21.7564 22.1802 21.7636 22.5611 21.7636 22.9442C21.7594 23.435 21.4106 23.7689 20.9178 23.7674C20.0206 23.7648 19.1243 23.7674 18.2274 23.7637C18.1113 23.7637 18.0806 23.8044 18.0801 23.9152C18.0801 24.5532 17.8463 24.7833 17.2097 24.7854C16.902 24.7854 16.5943 24.7854 16.2867 24.7854C16.0753 24.7854 15.9697 24.687 15.939 24.4767C15.9311 24.4251 15.9275 24.3729 15.928 24.3206C15.928 24.0563 16.0149 23.9616 16.2784 23.9397C16.4122 23.9287 16.5465 23.9287 16.6802 23.9184C16.7437 23.9137 16.8432 23.9423 16.8442 23.8413C16.8453 23.7403 16.7453 23.768 16.6839 23.768C15.7989 23.768 14.914 23.768 14.0326 23.768C13.9162 23.7674 13.7999 23.7596 13.6844 23.7446C13.32 23.6967 13.0685 23.324 13.0597 23.0109C13.0498 22.5997 13.0571 22.188 13.055 21.7765C13.0541 21.7238 13.0699 21.6722 13.1001 21.6291C13.1303 21.586 13.1734 21.5535 13.2231 21.5365C13.3768 21.4648 13.5452 21.4299 13.7147 21.4347C13.8842 21.4396 14.0503 21.4837 14.1997 21.5641C14.2452 21.5853 14.2829 21.6202 14.3075 21.6638C14.3321 21.7074 14.3425 21.7577 14.3372 21.8077C14.332 22.0022 14.333 22.1975 14.3372 22.392C14.3418 22.6398 14.4611 22.7564 14.7094 22.7564C15.3979 22.7564 16.0868 22.7564 16.776 22.7564C16.806 22.7601 16.8363 22.7571 16.8651 22.748C16.8921 22.7345 16.9103 22.7033 16.9327 22.6799C16.9088 22.6595 16.8874 22.6277 16.8598 22.6216C16.8216 22.6146 16.7825 22.6129 16.7437 22.6164H15.0639C14.8463 22.6164 14.7515 22.5576 14.6891 22.3513C14.5904 22.0527 14.5904 21.7301 14.6891 21.4314C14.7593 21.2231 14.8645 21.1524 15.0857 21.1524L17.4528 21.1472ZM17.4085 21.958C17.9192 21.958 18.4299 21.958 18.9406 21.958C19.0207 21.958 19.155 22.0065 19.1529 21.8665C19.1529 21.739 19.0218 21.7817 18.9447 21.7817C17.9103 21.778 16.8754 21.7791 15.8411 21.7791C15.8024 21.7748 15.7632 21.7787 15.726 21.7904C15.6964 21.8039 15.6563 21.8455 15.6599 21.8685C15.6731 21.906 15.6996 21.9372 15.7344 21.9565C15.7562 21.9699 15.7932 21.9601 15.8234 21.9601L17.4085 21.958Z" fill="#733236"/>
    <path d="M17.4465 19.8764C19.1446 19.8764 20.8428 19.8811 22.5408 19.8739C22.6563 19.8724 22.7708 19.8941 22.8777 19.9373C22.9846 19.9808 23.0819 20.045 23.1638 20.1263C23.2456 20.2076 23.3104 20.3045 23.3544 20.4112C23.3984 20.5178 23.4209 20.6321 23.4201 20.7476C23.4045 21.5485 23.4164 22.3498 23.4158 23.1508C23.4158 23.3516 23.3783 23.411 23.1899 23.4771C22.8891 23.5861 22.5581 23.5768 22.2639 23.4511C22.2065 23.4313 22.1575 23.3925 22.1247 23.3413C22.092 23.2902 22.0777 23.2295 22.0838 23.169C22.089 22.5407 22.089 21.9127 22.0838 21.2851C22.0838 20.9896 21.976 20.8834 21.6823 20.8834C18.8366 20.8834 15.9909 20.8834 13.1451 20.8834C12.9072 20.8834 12.7895 21.0056 12.788 21.2627C12.7831 21.9036 12.7831 22.5444 12.788 23.1851C12.793 23.2371 12.7815 23.2895 12.7549 23.3346C12.7283 23.3797 12.6881 23.4151 12.6401 23.4359C12.4767 23.5124 12.2986 23.5525 12.1182 23.5532C11.9377 23.554 11.7593 23.5154 11.5953 23.4402C11.5509 23.4213 11.5134 23.3891 11.4882 23.3479C11.463 23.3067 11.4513 23.2588 11.4548 23.2106C11.4548 22.3749 11.4517 21.5391 11.4579 20.7034C11.461 20.2349 11.8348 19.8759 12.3137 19.8753C13.7953 19.8753 15.2768 19.8753 16.7583 19.8753L17.4465 19.8764Z" fill="#733236"/>
    <path d="M11.4469 17.0324V15.3047C11.4469 15.1299 11.499 15.058 11.6661 14.9971C11.9569 14.8868 12.2786 14.89 12.5672 15.006C12.6926 15.058 12.7754 15.1299 12.7858 15.2802C12.7962 15.4306 12.8457 15.4624 12.9977 15.4629C13.418 15.4629 13.8381 15.4629 14.258 15.4629C14.4751 15.4629 14.5771 15.5493 14.6089 15.7627C14.616 15.8099 14.6199 15.8575 14.6203 15.9052C14.6203 16.2935 14.5162 16.3986 14.1336 16.4001C13.7916 16.4001 13.449 16.4001 13.107 16.4043C13.0351 16.403 12.965 16.4262 12.9082 16.4702C12.8513 16.5143 12.8113 16.5764 12.7947 16.6463C12.7788 16.706 12.7835 16.7693 12.808 16.8259C12.8326 16.8826 12.8756 16.9293 12.93 16.9586C13.0119 16.995 13.1006 17.014 13.1903 17.0142C13.5547 17.02 13.9191 17.0174 14.2835 17.0142C14.4527 17.0142 14.5698 17.097 14.5891 17.2661C14.605 17.4077 14.605 17.5507 14.5891 17.6923C14.5662 17.8973 14.4548 17.9853 14.2471 17.9869C13.8792 17.9893 13.511 17.9893 13.1424 17.9869C13.0859 17.9824 13.0292 17.9923 12.9775 18.0156C12.9258 18.0389 12.8808 18.0748 12.8467 18.1201C12.7905 18.1992 12.7577 18.2882 12.8108 18.3876C12.8341 18.4392 12.8718 18.4831 12.9193 18.5139C12.9668 18.5447 13.0222 18.5612 13.0789 18.5614C13.4641 18.5697 13.8495 18.5772 14.2351 18.5838C14.4772 18.5874 14.5807 18.6681 14.5948 18.9127C14.6033 19.0755 14.5889 19.2388 14.5521 19.3977C14.5235 19.5257 14.4173 19.5877 14.2767 19.5877C13.6094 19.5877 12.9425 19.5877 12.2757 19.5877C12.056 19.5856 11.846 19.4971 11.6914 19.3412C11.5368 19.1852 11.45 18.9745 11.45 18.755C11.4428 18.1794 11.45 17.6033 11.45 17.0272L11.4469 17.0324Z" fill="#733236"/>
    <path d="M23.4357 17.0355C23.4357 17.5897 23.4383 18.1439 23.4357 18.7008C23.4331 19.2576 23.0879 19.5943 22.531 19.5922C21.9027 19.5922 21.2747 19.5922 20.6464 19.5896C20.4305 19.5896 20.3425 19.5297 20.3091 19.3117C20.2852 19.1507 20.2863 18.9869 20.3128 18.8262C20.342 18.6492 20.4242 18.5977 20.6043 18.5925C20.9853 18.5821 21.3664 18.5774 21.7495 18.5676C21.8099 18.5701 21.8702 18.5609 21.927 18.5405C21.9806 18.5208 22.0263 18.4844 22.0577 18.4367C22.0889 18.389 22.1039 18.3325 22.1004 18.2756C22.0953 18.2148 22.0718 18.1569 22.0332 18.1098C21.9944 18.0627 21.942 18.0285 21.8834 18.0117C21.8199 17.998 21.7551 17.9916 21.6901 17.9925C21.3482 17.9925 21.0061 17.9925 20.6637 17.9925C20.4326 17.9925 20.3394 17.9321 20.306 17.7058C20.2865 17.5438 20.2907 17.3799 20.319 17.2192C20.3394 17.0833 20.443 17.0214 20.584 17.0214C20.9259 17.0214 21.2686 17.0271 21.6105 17.0214C21.7455 17.0214 21.8901 17.0376 22.0046 16.9314C22.0447 16.8948 22.0738 16.8479 22.089 16.7959C22.1041 16.7438 22.1046 16.6886 22.0903 16.6363C22.0762 16.584 22.0478 16.5366 22.0085 16.4993C21.9691 16.4621 21.9203 16.4364 21.8672 16.425C21.7904 16.4135 21.7128 16.4079 21.635 16.4084C21.3014 16.4058 20.9677 16.4084 20.6345 16.4053C20.4335 16.4053 20.344 16.347 20.3013 16.1492C20.2726 16.0148 20.2677 15.8763 20.2868 15.7402C20.3164 15.5429 20.4196 15.4696 20.621 15.4685C21.0067 15.4659 21.392 15.4685 21.7778 15.4685C21.8208 15.4685 21.8641 15.4685 21.9073 15.4685C22.0374 15.4732 22.1035 15.4061 22.1041 15.2817C22.1041 15.1365 22.1909 15.0621 22.3123 15.0147C22.6086 14.8937 22.9401 14.8917 23.2378 15.009C23.3941 15.0689 23.4398 15.1303 23.4404 15.3004C23.4404 15.8805 23.4404 16.4608 23.4404 17.0412L23.4357 17.0355Z" fill="#733236"/>
    <path d="M18.7094 17.8062C18.6786 17.8813 18.6395 17.9527 18.5928 18.0191C18.5022 18.1284 18.3918 18.222 18.2929 18.3246C18.194 18.4271 18.1888 18.5197 18.2929 18.6264L18.5839 18.9225C18.5959 18.935 18.6084 18.947 18.6199 18.96C18.7646 19.125 18.724 19.3763 18.5157 19.5845C18.3221 19.7775 18.1081 19.8061 17.9395 19.6543C17.84 19.5641 17.751 19.4627 17.6547 19.3701C17.5225 19.2431 17.3616 19.2457 17.2294 19.3747C17.1399 19.4627 17.0535 19.5537 16.9634 19.6411C16.9152 19.6953 16.8507 19.7321 16.7796 19.746C16.7085 19.7599 16.6349 19.7501 16.5699 19.7181C16.4776 19.6793 16.3957 19.6194 16.3305 19.5435C16.2653 19.4676 16.2186 19.3776 16.194 19.2805C16.177 19.2195 16.1771 19.1549 16.1945 19.0939C16.2119 19.0329 16.2457 18.9779 16.2924 18.935C16.3908 18.8372 16.4887 18.7393 16.5855 18.6404C16.7083 18.5145 16.7083 18.4526 16.5855 18.323C16.4923 18.2262 16.3975 18.1315 16.3023 18.0373C16.1685 17.9046 16.1461 17.7542 16.2237 17.5856C16.2927 17.4343 16.4126 17.312 16.5626 17.24C16.6297 17.2099 16.7046 17.2015 16.7768 17.216C16.849 17.2306 16.9148 17.2674 16.965 17.3212C17.0582 17.4123 17.1466 17.507 17.2409 17.596C17.3648 17.7136 17.4965 17.7204 17.6235 17.6095C17.7245 17.5216 17.8166 17.4232 17.9108 17.328C18.0379 17.1984 18.1899 17.1682 18.3476 17.2562C18.4514 17.3074 18.5396 17.3854 18.6032 17.4821C18.6668 17.5788 18.7034 17.6907 18.7094 17.8062Z" fill="#733236"/>
    <path d="M18.7063 15.1835C18.6814 15.2502 18.6482 15.3135 18.6074 15.3718C18.5163 15.4817 18.4091 15.5774 18.3081 15.6784C18.1831 15.8043 18.1816 15.8834 18.3044 16.0083C18.4044 16.1124 18.5194 16.2008 18.6012 16.3159C18.6621 16.4017 18.6954 16.5041 18.6964 16.6094C18.6886 16.8284 18.4507 17.0736 18.2352 17.1131C18.1774 17.1235 18.1179 17.1189 18.0624 17.0995C18.007 17.0802 17.9575 17.0469 17.9187 17.0028C17.8338 16.9159 17.7505 16.8279 17.6631 16.7426C17.5236 16.6078 17.3799 16.6042 17.2393 16.7348C17.1477 16.8201 17.0629 16.9128 16.9733 17.0012C16.9228 17.0592 16.8542 17.0984 16.7786 17.1125C16.703 17.1266 16.6249 17.1147 16.5569 17.0788C16.4699 17.0389 16.3927 16.9807 16.3304 16.9081C16.2681 16.8355 16.2223 16.7503 16.1961 16.6583C16.1769 16.5979 16.1751 16.5334 16.1907 16.4721C16.2064 16.4107 16.2389 16.355 16.2846 16.3112C16.3887 16.2008 16.4991 16.0968 16.6032 15.9875C16.7073 15.8782 16.7 15.8079 16.6032 15.707C16.5064 15.606 16.395 15.4988 16.2909 15.3947C16.2375 15.346 16.2005 15.2821 16.1847 15.2116C16.169 15.1412 16.1753 15.0676 16.2029 15.0008C16.2331 14.9123 16.2818 14.8312 16.3458 14.763C16.4098 14.6948 16.4876 14.6411 16.574 14.6053C16.7302 14.5376 16.8703 14.5923 16.9869 14.7094C17.0686 14.7926 17.1477 14.879 17.232 14.9597C17.3705 15.0908 17.5194 15.0877 17.6563 14.9534C17.7464 14.8655 17.8312 14.7734 17.9223 14.687C17.9776 14.6276 18.0521 14.5897 18.1327 14.5802C18.2133 14.5706 18.2946 14.59 18.3622 14.6349C18.5522 14.7484 18.6907 14.9024 18.7063 15.1835Z" fill="#733236"/>
    <path d="M38.0831 18.0005H32.6897V9.31639H38.0831V10.7182H33.6757L34.2103 10.2311V12.9516H37.6792V14.294H34.2103V17.0857L33.6757 16.5987H38.0831V18.0005ZM40.5279 18.0005H38.8766L40.8962 15.1256L38.8766 12.1319H40.5635L41.8584 14.1277L43.1058 12.1319H44.7333L42.7375 15.1137L44.6739 18.0005H43.0107L41.7515 16.0641L40.5279 18.0005ZM45.597 20.7209V12.1319H46.9394L47.0345 13.0229C47.2088 12.6823 47.4779 12.421 47.8423 12.2388C48.2067 12.0487 48.6065 11.9537 49.0421 11.9537C49.6044 11.9537 50.0876 12.0804 50.4915 12.3338C50.9034 12.5873 51.2241 12.9397 51.4537 13.3911C51.6833 13.8426 51.7982 14.3772 51.7982 14.9949C51.7982 15.6047 51.6913 16.1472 51.4775 16.6224C51.2636 17.0976 50.9509 17.4738 50.539 17.751C50.1351 18.0203 49.64 18.1549 49.054 18.1549C48.6184 18.1549 48.2185 18.0718 47.8542 17.9054C47.4978 17.7391 47.2284 17.5095 47.0463 17.2164V20.7209H45.597ZM47.0582 15.0662C47.0582 15.4147 47.1256 15.7235 47.2602 15.9928C47.3947 16.2621 47.5848 16.4759 47.8304 16.6343C48.0838 16.7848 48.3769 16.86 48.7095 16.86C49.0501 16.86 49.343 16.7848 49.5886 16.6343C49.8342 16.4759 50.0202 16.2621 50.1469 15.9928C50.2737 15.7235 50.337 15.4147 50.337 15.0662C50.337 14.7177 50.2737 14.4088 50.1469 14.1396C50.0202 13.8703 49.8342 13.6604 49.5886 13.5099C49.343 13.3516 49.0501 13.2723 48.7095 13.2723C48.3769 13.2723 48.0838 13.3476 47.8304 13.4981C47.5848 13.6485 47.3947 13.8584 47.2602 14.1277C47.1256 14.397 47.0582 14.7098 47.0582 15.0662ZM55.5777 18.1549C54.9995 18.1549 54.4847 18.0242 54.0333 17.7629C53.5898 17.4936 53.2413 17.1293 52.9879 16.67C52.7345 16.2027 52.6077 15.6681 52.6077 15.0662C52.6077 14.4564 52.7304 13.9178 52.976 13.4505C53.2216 12.9833 53.5661 12.619 54.0095 12.3576C54.453 12.0883 54.9599 11.9537 55.5301 11.9537C56.1241 11.9537 56.635 12.0804 57.0626 12.3338C57.4903 12.5794 57.819 12.9239 58.0487 13.3674C58.2862 13.8109 58.405 14.3415 58.405 14.9593V15.3988L53.368 15.4107L53.3918 14.4841H56.9676C56.9676 14.0802 56.8369 13.7555 56.5756 13.5099C56.3222 13.2644 55.9777 13.1417 55.542 13.1417C55.2014 13.1417 54.9124 13.2129 54.6748 13.3555C54.4452 13.4981 54.2709 13.7119 54.1521 13.997C54.0333 14.2821 53.9739 14.6306 53.9739 15.0424C53.9739 15.676 54.1085 16.1552 54.3778 16.4799C54.6549 16.8046 55.0629 16.9669 55.6014 16.9669C55.9974 16.9669 56.3222 16.8917 56.5756 16.7412C56.8369 16.5908 57.0071 16.3769 57.0864 16.0997H58.4288C58.302 16.7412 57.9854 17.2441 57.4784 17.6085C56.9795 17.9728 56.346 18.1549 55.5777 18.1549ZM63.2477 12.1081V13.4505H62.7131C62.1824 13.4505 61.7666 13.5931 61.4657 13.8782C61.1649 14.1554 61.0143 14.5791 61.0143 15.1493V18.0005H59.565V12.1438H60.9312L61.05 13.3555H60.9074C60.9867 12.9674 61.1727 12.6506 61.4657 12.4051C61.7588 12.1596 62.139 12.0369 62.6062 12.0369C62.7092 12.0369 62.8121 12.0408 62.9151 12.0487C63.0181 12.0567 63.1289 12.0764 63.2477 12.1081ZM64.2287 18.0005V12.1319H65.6781V18.0005H64.2287ZM64.9415 10.9558C64.6959 10.9558 64.4862 10.8726 64.3119 10.7063C64.1456 10.5321 64.0624 10.3222 64.0624 10.0767C64.0624 9.83117 64.1456 9.62526 64.3119 9.45895C64.4862 9.29263 64.6959 9.20947 64.9415 9.20947C65.1871 9.20947 65.3929 9.29263 65.5592 9.45895C65.7335 9.62526 65.8206 9.83117 65.8206 10.0767C65.8206 10.3222 65.7335 10.5321 65.5592 10.7063C65.3929 10.8726 65.1871 10.9558 64.9415 10.9558ZM69.8009 18.1549C69.2227 18.1549 68.7079 18.0242 68.2565 17.7629C67.8131 17.4936 67.4645 17.1293 67.2111 16.67C66.9577 16.2027 66.8309 15.6681 66.8309 15.0662C66.8309 14.4564 66.9536 13.9178 67.1992 13.4505C67.4448 12.9833 67.7893 12.619 68.2328 12.3576C68.6762 12.0883 69.1831 11.9537 69.7534 11.9537C70.3473 11.9537 70.8582 12.0804 71.2858 12.3338C71.7135 12.5794 72.0422 12.9239 72.2719 13.3674C72.5095 13.8109 72.6283 14.3415 72.6283 14.9593V15.3988L67.5912 15.4107L67.615 14.4841H71.1908C71.1908 14.0802 71.0601 13.7555 70.7988 13.5099C70.5454 13.2644 70.2009 13.1417 69.7652 13.1417C69.4246 13.1417 69.1356 13.2129 68.898 13.3555C68.6684 13.4981 68.4941 13.7119 68.3753 13.997C68.2565 14.2821 68.1971 14.6306 68.1971 15.0424C68.1971 15.676 68.3317 16.1552 68.601 16.4799C68.8782 16.8046 69.2861 16.9669 69.8246 16.9669C70.2206 16.9669 70.5454 16.8917 70.7988 16.7412C71.0601 16.5908 71.2303 16.3769 71.3096 16.0997H72.652C72.5252 16.7412 72.2086 17.2441 71.7016 17.6085C71.2027 17.9728 70.5692 18.1549 69.8009 18.1549ZM75.2375 18.0005H73.7882V12.1319H75.1306L75.2494 12.8922C75.4315 12.5992 75.689 12.3695 76.0216 12.2032C76.3622 12.0369 76.7305 11.9537 77.1264 11.9537C77.863 11.9537 78.4174 12.1715 78.7896 12.6071C79.1697 13.0427 79.3598 13.6367 79.3598 14.389V18.0005H77.9105V14.7336C77.9105 14.2425 77.7997 13.8782 77.5778 13.6406C77.356 13.3951 77.0551 13.2723 76.675 13.2723C76.2235 13.2723 75.8711 13.4149 75.6177 13.7C75.3643 13.9851 75.2375 14.3653 75.2375 14.8405V18.0005ZM80.4392 15.0543C80.4392 14.4524 80.5621 13.9178 80.8075 13.4505C81.061 12.9833 81.4055 12.619 81.841 12.3576C82.2846 12.0883 82.7955 11.9537 83.3735 11.9537C84.1735 11.9537 84.8269 12.1636 85.3336 12.5833C85.8486 12.9952 86.1455 13.5535 86.2246 14.2584H84.7753C84.6882 13.9257 84.5258 13.6763 84.2882 13.5099C84.0586 13.3357 83.7696 13.2486 83.421 13.2486C83.1201 13.2486 82.8508 13.3238 82.6132 13.4743C82.3836 13.6169 82.2054 13.8228 82.0786 14.092C81.952 14.3613 81.8885 14.6821 81.8885 15.0543C81.8885 15.4265 81.9479 15.7473 82.0667 16.0166C82.1855 16.2858 82.3559 16.4957 82.5775 16.6462C82.8073 16.7888 83.0765 16.86 83.3854 16.86C83.7497 16.86 84.0506 16.7729 84.2882 16.5987C84.5338 16.4244 84.6962 16.175 84.7753 15.8503H86.2365C86.1732 16.3096 86.0108 16.7135 85.7494 17.062C85.4961 17.4025 85.1673 17.6718 84.7634 17.8698C84.3595 18.0599 83.9003 18.1549 83.3854 18.1549C82.7914 18.1549 82.2728 18.0282 81.8291 17.7748C81.3857 17.5134 81.0412 17.1531 80.7956 16.6937C80.558 16.2264 80.4392 15.68 80.4392 15.0543ZM89.9408 18.1549C89.3625 18.1549 88.8478 18.0242 88.3964 17.7629C87.9529 17.4936 87.6044 17.1293 87.351 16.67C87.0976 16.2027 86.9708 15.6681 86.9708 15.0662C86.9708 14.4564 87.0935 13.9178 87.3391 13.4505C87.5847 12.9833 87.9292 12.619 88.3726 12.3576C88.8161 12.0883 89.323 11.9537 89.8932 11.9537C90.4872 11.9537 90.9981 12.0804 91.4257 12.3338C91.8534 12.5794 92.1821 12.9239 92.4117 13.3674C92.6493 13.8109 92.7681 14.3415 92.7681 14.9593V15.3988L87.7311 15.4107L87.7549 14.4841H91.3307C91.3307 14.0802 91.2 13.7555 90.9387 13.5099C90.6853 13.2644 90.3408 13.1417 89.9051 13.1417C89.5645 13.1417 89.2755 13.2129 89.0379 13.3555C88.8083 13.4981 88.634 13.7119 88.5152 13.997C88.3964 14.2821 88.337 14.6306 88.337 15.0424C88.337 15.676 88.4716 16.1552 88.7409 16.4799C89.018 16.8046 89.426 16.9669 89.9645 16.9669C90.3604 16.9669 90.6853 16.8917 90.9387 16.7412C91.2 16.5908 91.3702 16.3769 91.4495 16.0997H92.7919C92.6651 16.7412 92.3484 17.2441 91.8415 17.6085C91.3426 17.9728 90.709 18.1549 89.9408 18.1549Z" fill="#222222"/>
    <path d="M32.7899 27.0958H32.3088V22.3113H32.7966L35.543 26.4677H35.4294V22.3113H35.9039V27.0958H35.4294L32.6763 22.9394H32.7899V27.0958ZM38.5226 22.5251V27.0958H38.0415V22.5251H38.5226ZM36.5714 22.7523V22.3113H39.9994V22.7523H36.5714ZM40.6283 25.4319V22.3113H41.1094V25.4119C41.1094 25.8307 41.2208 26.1514 41.4436 26.3742C41.6663 26.5969 41.9871 26.7083 42.4058 26.7083C42.8112 26.7083 43.1253 26.5969 43.348 26.3742C43.5708 26.147 43.6821 25.8262 43.6821 25.4119V22.3113H44.1633V25.4319C44.1633 25.7928 44.092 26.1046 43.9494 26.3675C43.8113 26.6259 43.6109 26.8263 43.348 26.9689C43.0852 27.107 42.7711 27.176 42.4058 27.176C42.0361 27.176 41.7175 27.107 41.4502 26.9689C41.1874 26.8308 40.9847 26.6303 40.8421 26.3675C40.6996 26.1046 40.6283 25.7928 40.6283 25.4319Z" fill="#76453E"/>
    <path fill-rule="evenodd" clip-rule="evenodd" d="M93.3536 2.31543H7.64641C4.72471 2.31543 2.35621 4.68394 2.35621 7.60563V26.9102C2.35621 29.8319 4.72471 32.2004 7.64641 32.2004H93.3536C96.2753 32.2004 98.6438 29.8319 98.6438 26.9102V7.60563C98.6438 4.68394 96.2753 2.31543 93.3536 2.31543ZM7.64641 1.38733H93.3536C96.7879 1.38733 99.5719 4.17136 99.5719 7.60563V26.9102C99.5719 30.3445 96.7879 33.1285 93.3536 33.1285H7.64641C4.21213 33.1285 1.4281 30.3445 1.4281 26.9102V7.60563C1.4281 4.17136 4.21213 1.38733 7.64641 1.38733Z" fill="#222222"/>
</svg>
